<?xml version="1.0" standalone="no"?><!DOCTYPE svg PUBLIC "-//W3C//DTD SVG 1.1//EN" "http://www.w3.org/Graphics/SVG/1.1/DTD/svg11.dtd"><svg t="1564626238829" class="icon" viewBox="0 0 1024 1024" version="1.1" xmlns="http://www.w3.org/2000/svg" p-id="1143" xmlns:xlink="http://www.w3.org/1999/xlink" width="200" height="200"><defs><style type="text/css"></style></defs><path d="M891.215788 640.015605 889.196805 625.575732 886.61398 611.489922 884.562251 604.252077 882.58113 596.554768 879.960443 589.210499 877.270171 581.035306 874.191042 573.336974 870.829482 565.425793 864.847234 552.507576 859.538321 541.128411 854.230432 530.954701 849.593831 521.467629 844.284919 512.832971 840.392262 504.904395 832.146461 493.065765 821.774229 477.29764 819.368436 473.404983 818.554908 471.742111 818.554908 470.431256 820.288388 465.104947 822.694181 460.362946 824.782749 451.001741 825.951365 446.169689 825.951365 441.179025 826.554092 437.162548 826.554092 433.127651 825.951365 428.492074 825.279053 424.704818 823.756373 417.023882 821.774229 409.556816 819.97014 402.707828 817.138652 396.053268 813.9531 390.496715 811.43986 385.27683 808.644187 380.304585 804.255227 372.977713 802.62817 370.377492 802.131867 368.111892 800.11493 353.901239 798.805098 344.539011 797.319258 332.949045 795.018865 320.968176 791.408641 307.23643 789.355889 299.538097 787.726785 293.025777 785.462209 285.451264 782.914176 277.399891 780.36512 269.931802 777.10896 261.897825 770.456447 246.37734 766.526951 239.033072 761.782903 230.610238 757.325381 223.390813 752.865813 215.214597 746.565317 207.640084 741.257427 200.295815 734.779899 192.722326 728.19697 185.855942 721.541387 179.220824 713.64965 172.33602 709.509353 169.859619 705.58088 166.425404 697.086415 160.39199 687.24835 153.86125 677.19539 147.950633 666.825205 142.624325 655.500275 137.75748 644.881426 133.138276 633.803113 129.104403 621.699448 125.794008 610.621135 122.839723 598.834694 120.255875 587.686796 117.53081 575.653739 116.220978 563.866275 114.787326 552.117696 113.24725 539.978215 113.24725 528.262382 113.24725 516.936429 113.24725 505.008772 113.937982 493.825059 115.495454 482.676138 117.03553 471.351208 118.928646 460.131679 121.069403 449.513854 123.670647 438.896028 127.10384 429.021124 130.537032 419.147242 133.846404 409.236522 138.712225 399.892713 142.624325 391.611096 147.367349 382.974391 152.693658 375.011023 158.25021 367.154078 164.513868 360.677573 170.33648 350.520235 179.910533 342.096379 188.81125 334.026586 197.447954 326.629105 206.224852 319.693136 215.214597 313.605487 223.974098 307.694871 232.733599 304.935014 236.644675 302.385958 241.387699 296.864198 249.687736 292.476261 257.969353 288.582581 265.790482 285.184181 274.073122 281.857413 281.646612 279.096533 288.760636 276.549523 296.334125 273.964652 303.32433 270.53146 315.994907 268.019243 328.189647 266.638803 338.380754 265.22357 347.158674 265.22357 353.901239 265.22357 359.351368 265.22357 364.199793 262.816754 366.819456 260.621762 370.377492 258.888282 373.562021 257.401418 376.99419 255.525698 384.463302 253.472945 391.329686 252.800633 397.469524 252.340145 401.982304 252.340145 406.830729 247.597121 413.715533 244.234537 420.581917 241.687528 427.199639 239.810784 433.127651 238.360759 438.809047 236.980319 444.151729 236.980319 448.629717 236.980319 453.620381 236.980319 457.760678 237.793848 461.070051 238.962463 467.122907 240.413512 471.742111 237.793848 473.759047 230.361575 479.3156 220.558301 488.304322 214.541261 493.631654 208.66646 498.852562 204.631564 503.011278 201.303772 506.674715 194.154955 514.371 187.359178 522.069333 182.050266 528.706497 175.679162 538.297946 169.592536 546.932604 163.575496 556.542472 158.515247 565.425793 154.303318 574.877049 149.84375 583.652923 146.586566 592.289628 143.154397 601.296769 140.605342 610.05627 138.092102 619.063411 135.863341 626.885564 134.623094 635.292024 133.243677 643.09678 132.075061 650.687666 131.367957 665.481603 131.367957 679.214373 131.367957 685.372629 132.075061 691.424462 133.951805 701.725062 134.623094 706.255239 135.863341 710.855 137.384997 715.209168 138.800229 718.287273 141.065829 723.986065 142.800333 725.154681 143.861502 727.560474 145.20715 728.126362 146.020678 728.126362 146.586566 728.126362 152.497183 727.560474 158.515247 726.004025 163.575496 723.986065 168.884408 720.552873 173.732833 717.367321 178.121793 713.191208 182.864818 708.838064 186.863898 704.341656 190.685947 699.245591 194.154955 694.643784 197.411115 690.823781 199.428052 686.434821 203.39234 679.214373 204.631564 676.258041 205.338668 674.489768 205.691709 672.471808 206.612685 670.808936 207.320812 670.454872 208.66646 669.74572 209.515804 669.74572 209.868845 670.454872 210.541157 670.454872 211.214493 670.808936 213.443253 680.629605 215.85007 688.558182 219.071438 696.875614 222.326575 704.341656 225.052662 711.775976 229.264591 718.287273 232.342696 725.154681 235.812727 731.453131 239.810784 736.90326 242.85512 742.142587 250.924913 751.838414 257.967306 760.476141 264.763083 767.200286 271.452435 773.253142 277.256628 777.995143 285.893332 785.67608 289.361317 787.373745 290.528909 789.001825 290.528909 789.816376 289.715381 790.559297 289.361317 790.559297 287.627836 791.126208 281.150308 791.621489 275.133268 792.43604 270.071995 793.144168 264.763083 794.310737 260.126482 795.761786 255.525698 797.178041 251.490801 799.337217 248.306272 801.319361 244.234537 802.629193 241.687528 804.752554 238.962463 806.415426 236.023528 808.785403 232.342696 813.388235 230.963279 815.547411 229.264591 817.422108 226.928383 822.271556 225.65539 826.307476 224.131687 830.340325 223.813438 833.880965 223.813438 838.516542 223.813438 840.534502 223.141126 843.825454 223.141126 847.188039 222.326575 850.480015 222.326575 853.417927 223.141126 856.637248 223.813438 859.503529 225.65539 865.026312 226.928383 867.644953 228.556463 870.263593 230.361575 872.846418 232.342696 875.114065 234.998175 877.695866 236.980319 879.82025 242.85512 884.20921 248.765737 887.889019 255.525698 891.216811 262.816754 894.188492 270.53146 897.374044 279.096533 899.357212 287.627836 902.223492 296.864198 904.135028 306.067814 905.515469 315.551816 906.966517 325.355089 908.382772 344.680227 910.398686 364.606045 910.75275 382.974391 910.75275 391.611096 910.75275 399.892713 910.75275 408.528394 910.398686 415.925874 909.551388 423.075715 908.984477 429.765067 908.382772 440.524109 906.258389 448.27463 904.135028 455.637318 902.223492 469.227848 896.525724 475.386104 894.188492 481.259882 891.216811 490.959801 885.767705 499.699859 881.377722 506.177388 877.237425 510.920412 872.846418 518.316869 873.66097 524.051477 874.29849 535.376407 875.114065 540.685319 875.114065 545.17968 875.114065 548.612872 875.821169 552.117696 877.237425 557.674249 879.252315 563.866275 881.377722 575.653739 885.058554 587.686796 889.445468 599.401606 892.843868 611.223862 895.251707 623.291712 898.29502 635.785258 900.100132 647.641283 901.408941 659.534148 903.071813 670.647253 904.135028 682.539094 904.806317 693.935656 904.806317 705.013969 904.806317 715.526393 904.806317 726.143195 903.533324 736.549196 903.071813 746.565317 901.408941 755.801678 899.357212 765.040087 897.374044 773.889639 895.251707 777.568425 894.188492 781.674952 892.843868 789.355889 889.800555 796.186458 886.615003 802.62817 883.288235 808.644187 879.82025 813.9531 875.821169 816.041668 873.66097 818.554908 870.724081 821.774229 866.795609 825.279053 861.946161 826.554092 859.503529 827.119981 857.452823 828.604798 854.833159 829.17171 852.000648 829.17171 849.27456 829.880861 846.550519 829.17171 842.551438 828.604798 839.118246 827.119981 835.083349 825.951365 831.756581 823.756373 827.720661 821.10294 824.041876 818.554908 820.856323 815.121715 818.166051 808.042483 812.006771 800.11493 806.061362 792.115746 801.319361 783.691889 796.469913 764.439406 786.984888 759.837598 784.1534 758.564605 782.843568 757.748007 781.994224 767.022231 772.650415 771.022335 768.04963 774.34808 763.801886 780.824585 754.423285 786.948049 744.831836 792.115746 736.301556 796.999986 728.126362 803.548122 711.775976 808.644187 698.184423 812.005748 688.558182 813.9531 685.372629 815.121715 682.788781 817.138652 681.231309 817.987996 681.231309 818.554908 681.586396 823.508733 691.424462 827.933509 700.909487 831.048453 706.255239 834.267774 710.855 837.45435 716.516954 841.558831 722.111368 844.992023 726.004025 847.080591 728.126362 849.133344 730.038922 851.009064 731.453131 852.815199 732.762963 856.778464 734.780923 858.831216 735.48905 860.211656 735.48905 862.051561 735.48905 864.140129 734.780923 866.725 733.471091 869.592304 732.160235 871.961258 730.038922 874.191042 727.560474 876.704282 724.481346 878.685403 722.111368 880.916211 718.287273 882.58113 715.209168 884.562251 710.855 885.623419 707.174168 888.490723 698.184423 890.36542 688.23891 891.710045 677.213809 892.63102 670.808936 892.63102 665.481603 892.63102 659.782811 892.63102 652.810003 891.215788 640.015605Z" p-id="1144"></path></svg>